<?xml version="1.0" encoding="utf-8"?>
<!-- Generator: Adobe Illustrator 16.0.0, SVG Export Plug-In . SVG Version: 6.00 Build 0)  -->
<!DOCTYPE svg PUBLIC "-//W3C//DTD SVG 1.1//EN" "http://www.w3.org/Graphics/SVG/1.1/DTD/svg11.dtd">
<svg version="1.1" xmlns="http://www.w3.org/2000/svg" xmlns:xlink="http://www.w3.org/1999/xlink" x="0px" y="0px" width="545px"
	 height="485px" viewBox="0 0 545 485" enable-background="new 0 0 545 485" xml:space="preserve">
<g id="background">
</g>
<g id="icons_1_">
	<g id="icon_1_">
		<path fill="#E3E3E3" d="M466.42,10.738c-8.092-0.37-14.96,5.9-15.33,13.979c-0.038,1.173,0.077,2.294,0.28,3.39L348.305,86.011
			c-2.535-2.701-6.065-4.46-10.054-4.638c-5.875-0.28-11.048,2.957-13.622,7.837l-95.993-24.199
			c-0.293-7.557-6.27-13.763-13.941-14.094c-8.092-0.383-14.96,5.874-15.329,13.979c-0.039,0.905,0.025,1.771,0.152,2.638
			l-100.683,38.14c-2.51-3.581-6.562-6.053-11.29-6.257c-8.092-0.383-14.96,5.887-15.317,13.979
			c-0.382,8.117,5.888,14.948,13.992,15.305c8.079,0.382,14.935-5.862,15.305-13.967c0.038-0.611-0.039-1.197-0.103-1.771
			l101.167-38.318c2.536,3.211,6.358,5.352,10.768,5.556c5.798,0.255,10.921-2.893,13.521-7.646l96.133,24.211
			c0.37,7.442,6.296,13.559,13.916,13.916c8.066,0.356,14.96-5.913,15.33-13.992c0.051-1.325-0.115-2.574-0.383-3.81l102.874-57.815
			c2.549,2.88,6.193,4.792,10.335,4.97c8.079,0.382,14.96-5.875,15.33-13.966C480.769,17.963,474.512,11.107,466.42,10.738z"/>
		<path fill="#5FBCF5" d="M529.218,185.267l-53.47-92.629c-3.657-6.321-9.634-6.321-13.291,0L409,185.267
			c-3.67,6.333-0.676,11.507,6.64,11.507h14.463v252.885c0,0.331,0.025,0.65,0.038,0.981h77.937c0.013-0.331,0.038-0.65,0.038-0.981
			V196.773h14.463C529.88,196.773,532.875,191.6,529.218,185.267z"/>
		<path fill="#5FD4AF" d="M401.1,298.959l-53.482-92.616c-3.645-6.333-9.608-6.333-13.266,0l-53.47,92.616
			c-3.657,6.333-0.688,11.507,6.626,11.507h14.477v139.192c0,0.331,0.013,0.65,0.038,0.981h77.924
			c0.013-0.331,0.038-0.65,0.038-0.981V310.466h14.463C401.762,310.466,404.744,305.293,401.1,298.959z"/>
		<path fill="#FFD006" d="M272.981,240.456l-53.47-92.629c-3.657-6.333-9.634-6.333-13.278,0l-53.47,92.629
			c-3.657,6.321-0.676,11.494,6.626,11.494h14.731c-0.153,1.122-0.268,2.218-0.268,3.364v194.344c0,0.331,0.038,0.65,0.063,0.981
			h77.911c0.025-0.331,0.051-0.65,0.051-0.981V255.314c0-1.146-0.103-2.243-0.255-3.364h14.718
			C273.644,251.95,276.639,246.777,272.981,240.456z"/>
		<path fill="#F26B55" d="M144.812,326l-53.456-92.616c-3.645-6.333-9.634-6.333-13.278,0L24.595,326
			c-3.645,6.333-0.663,11.507,6.639,11.507h14.884c-0.255,1.428-0.407,2.854-0.407,4.333v106.812c0,0.331,0.038,0.663,0.038,1.007
			h77.937c0.013-0.344,0.025-0.676,0.025-1.007V341.84c0-1.479-0.141-2.905-0.396-4.333h14.871
			C145.487,337.507,148.482,332.333,144.812,326z"/>
		<g>
			<g>
				<path fill="#E3E3E3" d="M522.477,442.535c6.32,0,11.507,4.205,11.507,9.404v3.135c0,5.199-5.187,9.43-11.507,9.43H26.34
					c-6.346,0-9.34-4.129-9.34-9.315v-3.147c0-5.187,2.994-9.506,9.34-9.506H522.477z"/>
			</g>
		</g>
	</g>
</g>
<g id="header_1_">
</g>
</svg>
